PathFileType  4	(X/Y/Z) C:\Users\antoi\Documents\MyRepositories\mobilecap\ResultsAnalysis
DataRate	CameraRate	NumFrames	NumMarkers	Units	OrigDataRate	OrigDataStartFrame	OrigNumFrames
100.0	100.0	7	51	mm	100.0	99	158
Frame#	Time	r_knee			r_shank_antsup			r_ankle			r_calc			r_5meta			r_toe			L_knee			L_shank_antsup			L_ankle			L_calc			L_5meta			L_toe			r_sh2			r_sh3			r_sh4			L_sh2			L_sh3			r_thigh1			r_thigh2			r_thigh3			r_thigh4			r_thigh5			L_thigh1			L_thigh2			L_thigh3			L_thigh4			r.ASIS			r.PSIS			L.ASIS			L.PSIS			C7			R_Shoulder			L_Shoulder			R_Sternum			L_Sternum			R_humerus			R_elbow_med			R_elbow_lat			R_forearm			R_wrist_radius			R_wrist_ulna			L_humerus			L_elbow_med			L_elbow_lat			L_forearm			L_wrist_radius			L_wrist_ulna			R_HJC			L_HJC			R_HJC_reg			L_HJC_reg			
		X1	Y1	Z1	X2	Y2	Z2	X3	Y3	Z3	X4	Y4	Z4	X5	Y5	Z5	X6	Y6	Z6	X7	Y7	Z7	X8	Y8	Z8	X9	Y9	Z9	X10	Y10	Z10	X11	Y11	Z11	X12	Y12	Z12	X13	Y13	Z13	X14	Y14	Z14	X15	Y15	Z15	X16	Y16	Z16	X17	Y17	Z17	X18	Y18	Z18	X19	Y19	Z19	X20	Y20	Z20	X21	Y21	Z21	X22	Y22	Z22	X23	Y23	Z23	X24	Y24	Z24	X25	Y25	Z25	X26	Y26	Z26	X27	Y27	Z27	X28	Y28	Z28	X29	Y29	Z29	X30	Y30	Z30	X31	Y31	Z31	X32	Y32	Z32	X33	Y33	Z33	X34	Y34	Z34	X35	Y35	Z35	X36	Y36	Z36	X37	Y37	Z37	X38	Y38	Z38	X39	Y39	Z39	X40	Y40	Z40	X41	Y41	Z41	X42	Y42	Z42	X43	Y43	Z43	X44	Y44	Z44	X45	Y45	Z45	X46	Y46	Z46	X47	Y47	Z47	X48	Y48	Z48	X49	Y49	Z49	X50	Y50	Z50	X51	Y51	Z51	

99	0.98000000	960.51595	585.42734	-137.53299	928.18041	463.23783	-152.40756	676.03213	243.87660	-229.24455	630.15649	254.96961	-301.96988	709.01202	101.52285	-160.67818	779.83572	101.25215	-203.74988	820.67427	546.66019	-525.43179	859.65421	445.43950	-514.84554	782.80996	96.52019	-507.03063	725.81646	69.60330	-452.74125	924.31833	33.78261	-544.68448	960.82908	56.92536	-478.36575	874.10672	367.85151	-182.05095	860.15035	493.65093	-131.43742	801.57665	393.54684	-145.91740	774.63463	442.18118	-547.41030	797.80023	323.98182	-564.42292	999.14253	830.40775	-157.48668	1034.12963	723.71728	-157.18682	1001.29448	689.22636	-108.31414	905.92712	799.42438	-101.33894	943.54507	687.52168	-108.92161	921.90432	791.45954	-539.52674	920.18975	654.62823	-530.44143	814.03441	790.21403	-567.98612	810.95540	652.25890	-548.98499	909.12242	1071.97268	-209.53244	719.90300	1102.07926	-322.49375	946.17673	1038.70465	-467.94107	731.08475	1095.48395	-417.75976	831.64585	1535.29687	-581.81579	870.30185	1578.40216	-380.73142	911.77035	1395.99452	-689.41136	958.36565	1478.82009	-498.31463	960.44416	1451.36178	-538.17559	843.47609	1465.51014	-236.04066	726.42633	1262.15186	-192.65452	754.71131	1309.40170	-127.69741	849.25569	1167.24797	-80.21671	882.62112	1059.06316	-35.26730	855.54017	1060.32637	-3.11656	954.37720	1223.95595	-716.35021	928.27039	1011.30447	-640.01635	964.88078	1023.69784	-711.58117	1100.24732	936.42060	-659.62216	1171.91645	839.54103	-655.23938	1145.66026	817.59498	-689.58431	828.63956	991.43280	-245.02626	858.59196	955.79650	-453.27935	841.52221	984.20522	-248.90741	861.72268	972.29010	-421.00444	
100	0.99000000	975.89871	587.55992	-139.25060	946.41857	463.99607	-153.37135	702.20687	234.74736	-228.50268	655.30273	243.42957	-300.87228	742.01876	94.20206	-159.46979	812.66617	97.33092	-202.79135	825.13761	547.07561	-525.65168	863.15791	445.47270	-515.05369	783.14545	97.18779	-506.98606	726.11446	69.89486	-452.75442	924.32910	33.71222	-544.69725	960.95822	56.69976	-478.42711	895.78966	366.78491	-182.66586	877.41263	492.20194	-132.56230	822.52000	389.92802	-146.28133	778.12976	442.92998	-547.51849	800.20194	324.53475	-564.54541	1011.11834	832.92117	-160.49763	1047.22664	726.69240	-160.48936	1015.94552	691.99870	-110.74588	919.33496	801.08000	-102.23404	958.31709	689.77519	-110.12293	928.51459	791.18328	-539.99756	925.64748	654.40380	-530.81899	820.52572	790.70257	-568.32622	816.49448	652.75462	-549.12931	917.85196	1072.14439	-210.48203	728.64751	1102.23631	-322.90810	954.82081	1038.54486	-468.62365	739.71830	1095.59042	-418.22422	841.30340	1535.27188	-582.55974	879.08299	1578.36785	-381.31386	921.62650	1396.04541	-689.87572	967.57106	1478.81017	-498.62439	969.78320	1451.36395	-538.46220	851.48815	1465.38179	-236.82281	734.79969	1261.54296	-194.83394	762.14984	1308.83743	-129.42058	856.54176	1166.91228	-81.00352	889.69372	1058.78673	-35.75798	862.26017	1060.00085	-3.89713	966.02458	1224.91707	-716.85794	943.56642	1011.87906	-640.56445	980.27089	1025.01166	-711.86208	1117.19746	940.80393	-658.68895	1190.95154	845.58040	-653.57418	1165.72214	823.08339	-688.22633	837.39566	991.60884	-245.57205	867.07759	955.74549	-453.82393	850.32700	984.33717	-249.66487	870.30117	972.34638	-421.62957	
101	1.00000000	990.77335	589.48156	-141.21185	964.57042	464.67976	-154.36971	728.95782	225.32289	-227.81951	681.31543	231.33820	-299.99888	775.44708	87.22835	-157.87846	845.83603	93.56728	-201.34788	829.63202	547.51039	-525.82332	866.67963	445.51445	-515.29450	783.51969	97.88225	-506.99301	726.52009	70.26509	-452.79828	924.34088	33.62091	-544.73007	961.10882	56.49536	-478.50329	917.47195	365.54546	-183.38731	894.42269	490.44100	-133.90871	843.51565	386.01106	-146.75113	781.65725	443.70638	-547.63362	802.60787	325.12279	-564.67831	1022.80978	835.18032	-163.66158	1059.87794	729.37274	-164.01045	1030.10097	694.51848	-113.46045	932.45196	802.59038	-103.35073	972.67168	691.88442	-111.60578	935.22489	790.92385	-540.45579	931.22298	654.20474	-531.26748	827.07753	791.17357	-568.61015	822.11799	653.25531	-549.31543	926.63757	1072.22346	-211.29419	737.41414	1102.38077	-323.25463	963.55925	1038.40704	-469.29837	748.35692	1095.69715	-418.62597	850.94095	1535.29382	-583.10032	887.98921	1578.25957	-381.69050	931.43833	1396.15963	-690.21978	976.83984	1478.75280	-498.79133	979.15090	1451.37134	-538.61632	859.69522	1465.17150	-237.39686	743.14952	1260.99346	-196.65590	769.76360	1308.26952	-130.85530	863.93755	1166.45176	-81.71854	896.78493	1058.26444	-36.27373	869.13547	1059.47566	-4.68169	977.44678	1225.88106	-717.33847	958.58522	1012.57848	-640.99857	995.35031	1026.36799	-712.06337	1133.69308	945.18456	-657.76810	1209.44550	851.62285	-651.98495	1185.18960	828.60077	-686.91293	846.18836	991.71451	-246.08760	875.61417	955.71841	-454.35207	859.17200	984.41639	-250.31016	878.89775	972.36817	-422.22491	
102	1.01000000	1005.10982	591.12583	-143.42711	982.58189	465.26738	-155.53055	756.25546	215.72462	-227.18062	708.17314	218.85778	-299.32488	809.22311	80.72154	-155.92060	879.27465	90.06246	-199.45652	834.16460	547.92523	-526.05201	870.24738	445.55425	-515.56838	783.92820	98.59793	-507.04856	726.98900	70.73488	-452.88162	924.35965	33.50975	-544.78470	961.29663	56.32067	-478.59504	939.12430	364.14946	-184.21760	911.20364	488.35986	-135.44505	864.54347	381.83292	-147.32290	785.24370	444.49999	-547.77670	805.04599	325.73924	-564.83389	1034.18027	837.14374	-166.94571	1072.08527	731.72035	-167.70930	1043.71334	696.73295	-116.43265	945.25059	803.90641	-104.68497	986.54332	693.76568	-113.35998	942.01036	790.66857	-540.89595	936.89377	654.01226	-531.78115	833.69721	791.62654	-568.84979	827.79555	653.76334	-549.54006	935.49087	1072.21091	-211.95915	746.20022	1102.52674	-323.52988	972.41296	1038.30543	-469.98568	757.01843	1095.81693	-418.95959	860.57074	1535.35571	-583.43483	897.03220	1578.07887	-381.85864	941.22017	1396.34192	-690.44373	986.17263	1478.64399	-498.82153	988.54765	1451.36122	-538.64412	868.09552	1464.87338	-237.76279	751.46728	1260.51476	-198.09884	777.56819	1307.70987	-131.98972	871.43628	1165.85969	-82.36494	903.90543	1057.50518	-36.81534	876.17621	1058.75826	-5.45819	988.66063	1226.85388	-717.78052	973.23482	1013.40662	-641.35923	1010.07901	1027.78167	-712.20539	1149.72212	949.53281	-656.86830	1227.40355	857.63429	-650.47841	1204.02760	834.11682	-685.63949	855.02856	991.75274	-246.57903	884.21334	955.73218	-454.87276	868.04739	984.44664	-250.85690	887.54150	972.35550	-422.81824	
103	1.02000000	1018.88591	592.44075	-145.89159	1000.35679	465.71934	-156.93004	784.06626	206.06108	-226.56553	735.82781	206.14494	-298.79922	843.30871	74.76697	-153.64402	912.93786	86.91320	-197.19857	838.74896	548.29710	-526.40232	873.88093	445.58394	-515.87482	784.35852	99.33474	-507.15003	727.45369	71.31992	-453.00744	924.38879	33.38142	-544.85995	961.52981	56.17948	-478.70325	960.70659	362.62868	-185.13987	927.76014	485.97250	-137.13891	885.56210	377.44929	-147.99857	788.90189	445.30006	-547.96361	807.53890	326.37912	-565.02354	1045.20230	838.77036	-170.31819	1083.85309	733.69745	-171.54590	1056.76188	698.59400	-119.62586	957.71451	804.98143	-106.22492	999.88239	695.33651	-115.36585	948.83708	790.40492	-541.31484	942.62925	653.80810	-532.33735	840.38018	792.06366	-569.06873	833.50014	654.27884	-549.79872	944.40476	1072.10043	-212.49437	755.00238	1102.67381	-323.72871	981.38636	1038.24395	-470.70128	765.71095	1095.95689	-419.21897	870.20350	1535.45034	-583.56025	906.21880	1577.83126	-381.81522	950.97897	1396.59165	-690.54626	995.55995	1478.48276	-498.71819	997.97046	1451.30468	-538.55228	876.67934	1464.48585	-237.92124	759.75655	1260.10866	-199.15966	785.57159	1307.16186	-132.82344	879.03391	1165.13353	-82.94677	911.08672	1056.53971	-37.38587	883.38563	1057.85856	-6.21543	999.68498	1227.84384	-718.17018	987.44916	1014.35507	-641.67213	1024.42325	1029.25428	-712.29938	1165.27485	953.82311	-655.99894	1244.85181	863.59261	-649.05680	1222.20439	839.60263	-684.40526	863.91776	991.71771	-247.05715	892.87231	955.79373	-455.39969	876.94485	984.41758	-251.33746	896.24464	972.31159	-423.43933	
104	1.03000000	1032.08995	593.39450	-148.58007	1017.79984	466.00560	-158.57048	812.35602	196.43076	-225.94967	764.21791	193.35155	-298.35294	877.69165	69.41618	-151.12809	946.78969	84.20215	-194.69484	843.40501	548.64235	-526.85032	877.58623	445.59877	-516.21173	784.79789	100.09563	-507.29499	727.85562	72.02712	-453.16957	924.42824	33.23933	-544.95204	961.80651	56.07077	-478.82794	982.17594	361.02945	-186.12448	944.08586	483.30913	-138.95594	906.52778	372.92701	-148.77936	792.62735	446.09983	-548.20147	810.09792	327.03940	-565.25499	1055.86234	840.02518	-173.74641	1095.18275	735.26708	-175.48110	1069.25317	700.06055	-122.99508	969.83096	805.77307	-107.95464	1012.66209	696.53021	-117.59957	955.67168	790.12150	-541.71098	948.39844	653.57883	-532.90212	847.11112	792.48848	-569.29577	839.21403	654.80045	-550.08734	953.36750	1071.88100	-212.93548	763.82264	1102.80719	-323.84774	990.43942	1038.19983	-471.43850	774.43549	1096.11623	-419.40016	879.85049	1535.57218	-583.47205	915.55214	1577.52408	-381.55566	960.71530	1396.90511	-690.52416	1004.98983	1478.27160	-498.48007	1007.41930	1451.17968	-538.34332	885.43803	1464.01080	-237.87278	768.03551	1259.76543	-199.85453	793.77357	1306.61925	-133.36552	886.73633	1164.27677	-83.46521	918.36749	1055.40679	-37.98621	890.76047	1056.78594	-6.94322	1010.53981	1228.85763	-718.49252	1001.20837	1015.39877	-641.93591	1038.35844	1030.77166	-712.34882	1180.34209	958.03233	-655.16833	1261.82305	869.48328	-647.71928	1239.69758	845.02527	-683.21756	872.84475	991.60024	-247.52502	901.56222	955.88559	-455.93672	885.85651	984.30328	-251.78864	904.99433	972.23762	-424.09817	
105	1.04000000	1044.72298	593.97216	-151.44885	1034.84602	466.12317	-160.39525	841.08976	186.92688	-225.30840	793.27954	180.62466	-297.91088	912.36595	64.68897	-148.48015	980.78704	81.99288	-192.09300	848.14771	549.00607	-527.30800	881.35440	445.59891	-516.57581	785.23864	100.88296	-507.48068	728.17020	72.84855	-453.35550	924.47550	33.08685	-545.05544	962.11432	55.98901	-478.96784	1003.49471	359.40828	-187.14141	960.17663	480.40685	-140.85857	927.41423	368.33410	-149.65854	796.40006	446.89876	-548.48730	812.71855	327.71815	-565.53066	1066.16118	840.88112	-177.19565	1106.06965	736.39441	-179.47643	1081.21275	701.09924	-126.49143	981.58476	806.24413	-109.85391	1024.87657	697.30320	-120.03400	962.48963	789.80954	-542.08484	954.17677	653.31793	-533.43974	853.87216	792.90402	-569.55640	844.93215	655.32559	-550.40147	962.37355	1071.53895	-213.32391	772.67171	1102.90204	-323.88873	999.49609	1038.12816	-472.17105	783.19238	1096.28483	-419.50435	889.52511	1535.71724	-583.16283	925.03297	1577.16391	-381.07319	970.42686	1397.27801	-690.37156	1014.45583	1478.01607	-498.10102	1016.89973	1450.98224	-538.01200	894.36829	1463.45142	-237.61760	776.33482	1259.46344	-200.21620	802.16615	1306.06645	-133.63120	894.56015	1163.29702	-83.91602	925.77767	1054.13659	-38.61102	898.29318	1055.54806	-7.63241	1021.24314	1229.89681	-718.73269	1014.53609	1016.49838	-642.12638	1051.87012	1032.30789	-712.35335	1194.91331	962.13734	-654.38105	1278.33009	875.28788	-646.46129	1256.49795	850.34518	-682.08896	881.79250	991.39003	-247.97718	910.23799	955.96856	-456.47681	894.77625	984.07014	-252.24133	913.76089	972.12945	-424.78236	
